<?xml version="1.0" encoding="UTF-8"?>
<svg id="Layer_2" data-name="Layer 2" xmlns="http://www.w3.org/2000/svg" viewBox="0 0 84.21 36.59">
  <defs>
    <style>
      .cls-1, .cls-2 {
        fill: #3d5aa9;
      }

      .cls-2 {
        font-family: Rockwell, Rockwell;
        font-size: 13px;
      }
    </style>
  </defs>
  <g id="Layer_1-2" data-name="Layer 1">
    <g>
      <path class="cls-1" d="m59.11,30.53h2.22c.7,0,1.11.12,1.46.41s.47.64.47,1.05-.12.76-.41.99c-.18.18-.29.23-.52.29.82.23,1.17.7,1.17,1.52s-.52,1.58-1.58,1.63h-2.86v-5.89h.07Zm1.17.99v1.34h.93c.29,0,.41,0,.52-.06.18-.06.29-.35.29-.58,0-.25-.13-.47-.35-.58-.12-.06-.23-.06-.47-.06h-.93v-.06Zm0,2.33v1.58h.99c.23,0,.41-.06.52-.12.18-.12.29-.41.29-.7,0-.35-.18-.64-.41-.7-.12-.06-.18-.06-.47-.06h-.93Zm9.33-1.7v.41c.18-.23.35-.41.58-.52.12-.06.23-.06.35-.06.15-.02.29.03.41.12l-.23.93c-.12-.06-.18-.06-.35-.06-.23,0-.47.12-.7.35v3.09h-1.17v-4.26h1.11Zm4.78,3.09l.47.7c-.52.41-1.05.58-1.63.58-1.22,0-2.04-.87-2.04-2.27,0-.76.18-1.28.52-1.76.35-.41.82-.58,1.34-.58s.99.18,1.28.47c.41.41.58.99.58,1.92v.29h-2.51v.06c0,.7.35,1.05.93,1.05.35,0,.7-.18,1.05-.47h0Zm-1.98-1.45h1.34v-.06c0-.35-.06-.47-.12-.64-.12-.18-.29-.23-.52-.23-.47-.06-.7.29-.7.93h0Zm5.72,2.62v-.29q-.18.18-.29.23c-.23.18-.52.23-.87.23-.99,0-1.52-.47-1.52-1.34,0-1.05.7-1.52,2.1-1.52h.23v-.18c0-.47-.12-.64-.52-.64-.35,0-.82.18-1.28.47l-.47-.82c.29-.18.41-.23.7-.35.37-.16.77-.24,1.17-.23.76,0,1.22.29,1.4.76.06.18.06.29.06.76v2.86l-.7.06Zm-.35-1.87c-.82,0-1.11.12-1.11.64,0,.35.23.58.52.58.23,0,.41-.12.58-.29v-.93Z"/>
      <path id="A" class="cls-1" d="m82.32,36.42v-.29c-.29.29-.7.41-1.17.41-.58,0-1.17-.29-1.28-.7-.06-.18-.12-.41-.12-.87v-2.8h1.11v2.57c0,.41,0,.58.12.7.06.12.23.18.41.18.29,0,.64-.18.7-.41v-3.09h1.11v4.26h-.87v.06Z"/>
      <path class="cls-1" d="m13.23,12.22c-1.11-.76-2.22-1.11-3.44-1.11-1.46,0-2.92.64-3.67,1.76-.82,1.17-1.22,2.86-1.22,5.19,0,2.74.23,4.31.87,5.42.87,1.46,2.27,2.27,4.14,2.27,1.16.01,2.31-.33,3.27-.99.12-.06.29-.18.41-.29l1.76,2.74c-1.63,1.17-3.44,1.69-5.77,1.69-2.97,0-5.31-.87-7.06-2.8-1.63-1.92-2.51-4.31-2.51-7.3,0-2.51.47-4.55,1.46-6.24,1.69-2.92,4.78-4.66,8.28-4.66,1.98,0,3.96.52,5.19,1.4l-1.7,2.91Zm14.05,12.13l1.52,2.27c-1.69,1.4-3.5,2.04-5.54,2.04-4.2,0-6.95-2.97-6.95-7.64,0-2.62.52-4.37,1.87-5.83,1.22-1.34,2.68-1.98,4.61-1.98,1.69,0,3.32.58,4.26,1.58,1.34,1.4,1.92,3.38,1.92,6.41v.87h-8.57v.12c0,2.27,1.11,3.56,3.09,3.56,1.34.06,2.62-.41,3.78-1.4h.02Zm-6.82-5.02h4.43v-.18c0-1.11-.12-1.69-.47-2.22-.35-.58-.93-.87-1.69-.87-1.4,0-2.27,1.17-2.27,3.27h0Zm13.76-5.95l.35,1.63c.87-.64,1.05-.76,1.69-1.11.81-.41,1.71-.63,2.62-.64,1.63,0,3.09.87,3.56,2.1.18.52.29,1.17.29,2.1v10.73h-3.78v-9.5c0-1.69-.29-2.16-1.28-2.16-.76,0-1.81.52-2.68,1.34v10.37h-3.87v-14.86h3.1Z"/>
      <path class="cls-1" d="m34.57,13.39v1.63c.87-.64,1.05-.76,1.69-1.11.81-.41,1.71-.63,2.62-.64,1.63,0,3.09.87,3.56,2.1.18.52.29,1.17.29,2.1v10.73h-3.78v-9.5c0-1.69-.29-2.16-1.28-2.16-.76,0-1.81.52-2.68,1.34v10.37h-3.87v-14.86h3.45Zm20.17,3.72c-1.46-.76-2.51-1.05-3.61-1.05s-1.87.58-1.87,1.46c0,.76.47,1.17,1.87,1.52l1.81.47c1.81.47,2.39.99,2.92,1.69s.82,1.52.82,2.51c0,3.03-2.51,5.13-6.3,5.13-1.76,0-3.67-.52-5.77-1.63l1.22-2.92c1.17.7,3.21,1.69,4.9,1.69,1.11,0,1.98-.7,1.98-1.69s-.7-1.52-2.27-1.81l-1.76-.29c-.99-.18-2.16-.87-2.68-1.52s-.82-1.69-.82-2.62c0-2.86,2.27-4.78,5.66-4.78,2.22,0,3.73.64,5.01,1.28l-1.11,2.57Zm12.07,11.14v-1.63c-.87.64-1.05.76-1.69,1.11-.81.41-1.71.63-2.62.64-1.63,0-3.09-.87-3.56-2.1-.18-.52-.29-1.17-.29-2.1v-10.79h3.78v9.56c0,1.69.29,2.16,1.28,2.16.76,0,1.81-.52,2.68-1.34v-10.38h3.85v14.86h-3.43Z"/>
      <path id="A-2" data-name="A" class="cls-1" d="m66.75,36.42v-.29c-.29.29-.7.41-1.17.41-.58,0-1.17-.29-1.28-.7-.06-.18-.12-.41-.12-.87v-2.8h1.11v2.57c0,.41,0,.58.12.7.06.12.23.18.41.18.29,0,.64-.18.7-.41v-3.09h1.11v4.26h-.87v.06Z"/>
      <path class="cls-1" d="m82.32,17.12c-1.46-.76-2.51-1.05-3.61-1.05s-1.87.58-1.87,1.46c0,.76.47,1.17,1.87,1.52l1.76.41c1.81.47,2.39.99,2.92,1.69.52.7.82,1.52.82,2.51,0,3.03-2.51,5.13-6.3,5.13-1.76,0-3.67-.52-5.77-1.63l1.22-2.92c1.17.7,3.21,1.69,4.9,1.69,1.11,0,1.98-.7,1.98-1.69s-.7-1.52-2.27-1.81l-1.76-.29c-.99-.18-2.16-.87-2.68-1.52s-.82-1.69-.82-2.62c0-2.86,2.27-4.78,5.72-4.78,2.22,0,3.73.64,5.01,1.28l-1.12,2.63ZM2.21,32.51h52.36c1.11,0,1.98.87,1.98,1.98s-.87,1.98-1.98,1.98H2.21c-1.11,0-1.98-.87-1.98-1.98s.87-1.98,1.98-1.98Z"/>
    </g>
  </g>
  <g id="Layer_3" data-name="Layer 3">
    <text class="cls-2" transform="translate(18.09 10.91)"><tspan x="0" y="0">Better</tspan></text>
  </g>
</svg>